<?xml version="1.0" standalone="no"?>
<!DOCTYPE svg PUBLIC "-//W3C//DTD SVG 20010904//EN"
 "http://www.w3.org/TR/2001/REC-SVG-20010904/DTD/svg10.dtd">
<svg version="1.0" xmlns="http://www.w3.org/2000/svg"
 width="32px" height="32px" viewBox="0 0 512.000000 512.000000"
 preserveAspectRatio="xMidYMid meet">

<g transform="translate(0.000000,512.000000) scale(0.100000,-0.100000)"
fill="#C73897" stroke="none">
<path d="M1452 4739 c-19 -6 -53 -29 -77 -53 -33 -34 -46 -55 -55 -97 -8 -40
-10 -356 -8 -1190 l3 -1136 30 -49 c20 -31 47 -58 75 -74 l45 -25 760 -3 c547
-2 772 0 801 9 55 15 107 59 133 112 17 35 21 62 21 140 l0 97 -800 0 c-860 0
-843 -1 -870 49 -7 13 -10 341 -10 981 l0 962 29 29 29 29 811 0 811 0 0 30
c0 70 -54 148 -125 181 -38 18 -81 19 -805 18 -455 -1 -778 -5 -798 -10z m859
-2388 c53 -53 35 -138 -35 -161 -41 -13 -75 -2 -105 36 -37 47 -25 110 27 138
43 24 80 20 113 -13z"/>
<path d="M2960 4369 c-32 -13 -77 -56 -98 -94 -15 -27 -17 -101 -20 -748 -2
-469 1 -731 8 -756 15 -56 50 -101 95 -125 38 -20 58 -21 380 -24 393 -4 427
0 484 57 23 23 42 55 50 82 9 33 11 220 9 764 l-3 720 -27 47 c-19 32 -41 52
-71 67 -42 20 -57 21 -413 20 -219 0 -379 -4 -394 -10z m740 -864 l0 -545
-350 0 -350 0 0 538 c0 296 3 542 7 545 3 4 161 7 350 7 l343 0 0 -545z m-300
-620 c105 -54 35 -211 -77 -174 -57 18 -82 100 -45 145 36 45 74 54 122 29z"/>
<path d="M797 4039 c-90 -21 -160 -78 -199 -164 l-23 -50 -3 -1295 c-2 -712 0
-1318 3 -1346 9 -73 58 -151 119 -189 l49 -30 690 -3 689 -2 -7 -38 c-20 -113
-111 -228 -217 -277 -51 -23 -134 -47 -210 -60 -51 -8 -88 -53 -88 -107 0 -32
7 -47 34 -74 l34 -34 883 0 c858 0 885 1 916 20 20 12 35 31 41 53 21 77 -16
129 -106 147 -74 15 -147 38 -195 62 -49 24 -123 92 -153 139 -21 34 -54 128
-54 156 0 11 123 13 673 13 521 1 680 4 708 14 56 20 103 61 135 118 l29 53 0
1340 0 1340 -28 57 c-32 65 -81 112 -146 141 -35 16 -74 22 -163 25 l-118 4 0
-121 0 -121 98 0 c63 0 102 -4 110 -12 9 -9 12 -268 12 -1104 l0 -1093 -22
-15 c-20 -14 -201 -16 -1728 -16 -1527 0 -1708 2 -1728 16 l-22 15 0 1093 c0
836 3 1095 12 1104 8 8 55 12 145 12 l133 0 0 120 0 120 -132 -1 c-73 -1 -150
-5 -171 -10z m1840 -2679 c118 -72 62 -260 -77 -260 -79 0 -140 60 -140 138 0
85 56 142 140 142 27 0 58 -8 77 -20z"/>
</g>
</svg>
